<svg width="51" height="51" viewBox="0 0 51 51" fill="none" xmlns="http://www.w3.org/2000/svg">
<path d="M0.469971 25.6201C0.469971 39.4401 11.77 50.7402 25.59 50.7402C39.41 50.7402 50.71 39.4401 50.71 25.6201C50.71 11.8001 39.41 0.5 25.59 0.5C11.77 0.5 0.469971 11.8001 0.469971 25.6201ZM13.21 26.3398C13.03 25.7998 13.03 25.2599 13.21 24.8999C13.21 24.7199 13.39 24.5399 13.57 24.3599L20.75 17.1802C21.47 16.4602 22.54 16.4602 23.26 17.1802C23.98 17.9002 23.98 18.9699 23.26 19.6899L19.13 23.8198H38.15C39.23 23.8198 39.94 24.5399 39.94 25.6099C39.94 26.6899 39.22 27.3999 38.15 27.3999H19.13L23.26 31.5298C23.98 32.2498 23.98 33.32 23.26 34.04C22.9 34.4 22.54 34.5801 22 34.5801C21.46 34.5801 21.1 34.4 20.74 34.04L13.56 26.8599C13.38 26.6799 13.2 26.4998 13.2 26.3198L13.21 26.3398Z" fill="#DE0026"/>
</svg>
