<svg width="51" height="51" viewBox="0 0 51 51" fill="none" xmlns="http://www.w3.org/2000/svg">
<path d="M25.53 0.5C11.71 0.5 0.410034 11.8001 0.410034 25.6201C0.410034 39.4401 11.71 50.7402 25.53 50.7402C39.35 50.7402 50.65 39.4401 50.65 25.6201C50.65 11.8001 39.35 0.5 25.53 0.5ZM37.55 26.8799L30.37 34.0601C30.01 34.4201 29.65 34.6001 29.11 34.6001C28.57 34.6001 28.21 34.4201 27.85 34.0601C27.13 33.3401 27.13 32.2698 27.85 31.5498L31.98 27.4199H12.96C11.88 27.4199 11.17 26.6999 11.17 25.6299C11.17 24.5599 11.89 23.8398 12.96 23.8398H31.98L27.85 19.71C27.13 18.99 27.13 17.9202 27.85 17.2002C28.57 16.4802 29.64 16.4802 30.36 17.2002L37.54 24.3799C37.72 24.5599 37.9 24.7399 37.9 24.9199C38.08 25.2799 38.08 25.8199 37.9 26.3599C37.9 26.5399 37.72 26.7199 37.54 26.8999L37.55 26.8799Z" fill="#DE0026"/>
</svg>
