<svg width="344" height="280" viewBox="0 0 344 280" fill="none" xmlns="http://www.w3.org/2000/svg">
<g clip-path="url(#clip0_1_3790)">
<path d="M-1098 0H343.51L343.64 280.24C338.98 196.79 269.83 130.55 185.2 130.55H-1097.62L-1098 0Z" fill="#DE0026"/>
<mask id="mask0_1_3790" style="mask-type:luminance" maskUnits="userSpaceOnUse" x="-1098" y="0" width="1442" height="281">
<path d="M-1098 0H343.51L343.64 280.24C338.98 196.79 269.83 130.55 185.2 130.55H-1097.62L-1098 0Z" fill="white"/>
</mask>
<g mask="url(#mask0_1_3790)">
<g style="mix-blend-mode:multiply" opacity="0.5">
<path d="M125.84 10.8904V1.76035H116.71V-7.01965H125.84V-16.1396H134.62V-7.01965H143.75V1.76035H134.62V10.8904H125.84Z" fill="#D40025"/>
<path d="M296.51 103.041V87.6106H281.08V72.7706H296.51V57.3506H311.35V72.7706H326.77V87.6106H311.35V103.041H296.51Z" fill="#D40025"/>
<path d="M95.0099 59.8708V53.0208H88.1699V46.4308H95.0099V39.5908H101.6V46.4308H108.45V53.0208H101.6V59.8708H95.0099Z" fill="#D40025"/>
<path d="M215.63 121.011V107.591H202.21V94.6805H215.63V81.2705H228.54V94.6805H241.95V107.591H228.54V121.011H215.63Z" fill="#D40025"/>
<path d="M67.61 108.981V103.691H62.3201V98.5908H67.61V93.3008H72.71V98.5908H78V103.691H72.71V108.981H67.61Z" fill="#D40025"/>
<path d="M329.63 40.8608V32.9208H321.69V25.2808H329.63V17.3408H337.27V25.2808H345.21V32.9208H337.27V40.8608H329.63Z" fill="#D40025"/>
<path d="M149.87 153.51V140.55H136.91V128.08H149.87V115.12H162.34V128.08H175.3V140.55H162.34V153.51H149.87Z" fill="#D40025"/>
<path d="M195.66 184.38V168.68H179.96V153.58H195.66V137.88H210.76V153.58H226.46V168.68H210.76V184.38H195.66Z" fill="#D40025"/>
<path d="M267.13 141.421V127.821H253.53V114.741H267.13V101.141H280.22V114.741H293.81V127.821H280.22V141.421H267.13Z" fill="#D40025"/>
<path d="M257.76 222.48V196.75H232.04V172H257.76V146.28H282.51V172H308.23V196.75H282.51V222.48H257.76Z" fill="#D40025"/>
<path d="M321.79 195.73V187.61H313.67V179.79H321.79V171.67H329.61V179.79H337.73V187.61H329.61V195.73H321.79Z" fill="#D40025"/>
<path d="M220.81 34.1406V18.4406H205.11V3.34062H220.81V-12.3594H235.92V3.34062H251.62V18.4406H235.92V34.1406H220.81Z" fill="#D40025"/>
<path d="M274.01 37.9702V25.7402H261.78V13.9702H274.01V1.74023H285.77V13.9702H298V25.7402H285.77V37.9702H274.01Z" fill="#D40025"/>
<path d="M157.48 228.93V217.24H145.8V206H157.48V194.32H168.72V206H180.4V217.24H168.72V228.93H157.48Z" fill="#D40025"/>
<path d="M162.5 58.98V46.75H150.27V34.98H162.5V22.75H174.27V34.98H186.5V46.75H174.27V58.98H162.5Z" fill="#D40025"/>
<path d="M104.23 163.24V155.75H96.75V148.55H104.23V141.07H111.43V148.55H118.91V155.75H111.43V163.24H104.23Z" fill="#D40025"/>
<path d="M52.4701 174.65V170.08H47.9102V165.69H52.4701V161.13H56.8601V165.69H61.4202V170.08H56.8601V174.65H52.4701Z" fill="#D40025"/>
</g>
</g>
</g>
<defs>
<clipPath id="clip0_1_3790">
<rect width="344" height="280" fill="white"/>
</clipPath>
</defs>
</svg>
