<svg width="40" height="40" viewBox="0 0 40 40" fill="none" xmlns="http://www.w3.org/2000/svg">
<path d="M15.0308 0.0318183C18.3919 -0.026146 21.7723 0.00215685 25.1334 0.0601212C29.5086 0.137407 33.5555 0.137709 36.791 3.5093C39.872 6.71666 39.872 10.6096 39.9493 14.7927C40.0169 18.2609 40.0169 21.7485 39.9493 25.2167C39.872 29.3998 39.872 33.2937 36.791 36.501C33.71 39.7084 29.528 39.872 25.172 39.9493C21.7337 40.0169 18.2663 40.0169 14.828 39.9493C10.4721 39.872 6.43487 39.863 3.20899 36.501C0.118319 33.284 0.127973 29.3708 0.0507063 25.178C-0.0169021 21.7291 -0.0169021 18.2513 0.0507063 14.7927C0.127973 10.6193 0.127973 6.73647 3.18967 3.52911C6.42521 0.138199 10.6362 0.0987263 15.0308 0.0214406V0.0318183ZM14.2485 3.62534C11.5345 3.68331 8.37619 3.68308 6.23204 5.56692C3.65327 7.83719 3.71122 10.9577 3.63395 14.1361C3.53737 18.0294 3.53737 21.9904 3.63395 25.8837C3.71122 29.0331 3.64361 32.1536 6.19341 34.4142C8.33756 36.327 11.293 36.2976 14.007 36.3652C17.9766 36.4618 22.0234 36.4618 25.993 36.3652C28.707 36.2976 31.6528 36.3367 33.8066 34.4142C36.3178 32.1729 36.2791 29.1201 36.3661 25.9997C36.4626 22.0292 36.4626 17.981 36.3661 14.0201C36.2888 10.8803 36.3178 7.82802 33.7873 5.58673C31.6238 3.67391 28.6394 3.72221 25.9157 3.65459C22.0717 3.55798 18.1021 3.5384 14.2581 3.62534H14.2485Z" fill="#DE0026"/>
<path d="M19.5992 9.7598C27.606 9.44099 32.9277 18.136 28.9099 25.1207C25.2107 31.5451 16.0836 32.0769 11.7084 26.0679C6.86955 19.431 11.4379 10.0883 19.5992 9.7598ZM19.4833 13.3439C14.4996 13.6917 11.6504 19.3725 14.3644 23.5943C16.9432 27.6131 22.8251 27.7391 25.5198 23.7782C28.6877 19.1218 25.0659 12.9384 19.493 13.3345L19.4833 13.3439Z" fill="#DE0026"/>
<path d="M30.3392 6.97728C33.5458 6.61018 33.9997 11.3052 31.025 11.7303C27.7701 12.1843 27.2679 7.33473 30.3392 6.97728Z" fill="#DE0026"/>
</svg>
