<svg width="277" height="78" viewBox="0 0 277 78" fill="none" xmlns="http://www.w3.org/2000/svg">
<path d="M86.21 13.0703V30.8303C86.21 40.2803 80.89 45.7203 71.26 45.7203C61.63 45.7203 56.01 40.3503 56.01 30.1103V13.0703H65.34V30.1103C65.34 35.4303 67.25 37.8803 71.2 37.8803C75.15 37.8803 76.88 35.4303 76.88 30.1103V13.0703H86.21Z" fill="white"/>
<path d="M90.88 45.7203V27.9603C90.88 18.5103 96.2 13.0703 105.83 13.0703C115.46 13.0703 121.08 18.4403 121.08 28.6803V45.7203H111.75V28.6803C111.75 23.3603 109.84 20.9103 105.89 20.9103C101.94 20.9103 100.21 23.3603 100.21 28.6803V45.7203H90.88Z" fill="white"/>
<path d="M51.34 13.0703V30.8303C51.34 40.2803 46.02 45.7203 36.39 45.7203C31.96 45.7203 28.32 44.5203 25.81 41.1803C23.36 44.4103 19.83 45.7203 15.17 45.7203C5.48003 45.7203 0.280029 40.2803 0.280029 30.8303V13.0703H9.61003V30.1103C9.61003 35.4303 11.34 37.8803 15.29 37.8803C19.24 37.8803 21.15 35.4303 21.15 30.1103V13.0703H30.48V30.1103C30.48 35.4303 32.39 37.8803 36.34 37.8803C40.29 37.8803 42.02 35.4303 42.02 30.1103V13.0703H51.35H51.34Z" fill="white"/>
<path d="M160.79 0.870117V45.2401H151.88V41.5301C149.55 44.3401 146.14 45.7201 141.83 45.7201C132.74 45.7201 125.74 39.2601 125.74 29.1601C125.74 19.0601 132.74 12.6001 141.83 12.6001C145.78 12.6001 149.12 13.8601 151.46 16.4901V0.880116H160.79V0.870117ZM151.64 29.1501C151.64 23.5901 148.05 20.2401 143.45 20.2401C138.85 20.2401 135.2 23.5901 135.2 29.1501C135.2 34.7101 138.79 38.0601 143.45 38.0601C148.11 38.0601 151.64 34.7101 151.64 29.1501Z" fill="white"/>
<path d="M182.1 13.0703V22.3803H191.41V30.0903H182.1V39.4003H174.8V30.0903H165.46V22.3803H174.8V13.0703H182.1Z" fill="white"/>
<path d="M191.43 2.47012H193.63V8.03012H195.65V2.47012H197.84V0.870117H191.43V2.47012Z" fill="white"/>
<path d="M206.93 8.03012L206.92 0.870117H205.25L202.79 5.00012L200.28 0.870117H198.61V8.03012H200.47V4.33012L202.3 7.32012H203.2L205.05 4.23012L205.07 8.03012H206.93Z" fill="white"/>
<path d="M0.509946 74.0898L7.62195 64.2198H8.68595L10.5059 74.0898H9.37195L8.92395 71.4998H3.57595L1.72795 74.0898H0.509946ZM4.27595 70.4918H8.74195L7.85995 65.4798L4.27595 70.4918ZM15.2976 74.2578C13.6176 74.2578 12.0916 73.0678 12.0916 71.0938C12.0916 69.8758 12.5816 68.7838 13.4076 67.9578C14.1916 67.1738 15.2276 66.6978 16.3476 66.6978C17.8596 66.6978 18.7836 67.4958 19.2316 68.3918L18.3636 68.9518C17.9576 68.2378 17.3696 67.6498 16.2776 67.6498C15.5076 67.6498 14.7936 67.9998 14.2476 68.5598C13.6176 69.1898 13.1976 70.0998 13.1976 71.0658C13.1976 72.4938 14.2196 73.3058 15.3536 73.3058C16.2076 73.3058 16.8656 72.9278 17.4956 72.3538L18.1256 73.0538C17.3836 73.7678 16.5156 74.2578 15.2976 74.2578ZM23.0085 74.2578C21.3285 74.2578 19.8025 73.0678 19.8025 71.0938C19.8025 69.8758 20.2925 68.7838 21.1185 67.9578C21.9025 67.1738 22.9385 66.6978 24.0585 66.6978C25.5705 66.6978 26.4945 67.4958 26.9425 68.3918L26.0745 68.9518C25.6685 68.2378 25.0805 67.6498 23.9885 67.6498C23.2185 67.6498 22.5045 67.9998 21.9585 68.5598C21.3285 69.1898 20.9085 70.0998 20.9085 71.0658C20.9085 72.4938 21.9305 73.3058 23.0645 73.3058C23.9185 73.3058 24.5765 72.9278 25.2065 72.3538L25.8365 73.0538C25.0945 73.7678 24.2265 74.2578 23.0085 74.2578ZM34.2754 70.8418H28.6054C28.5914 70.9398 28.5914 71.0378 28.5914 71.1358C28.5914 72.4238 29.4034 73.3338 30.7334 73.3338C31.6714 73.3338 32.3434 73.0258 33.0154 72.4798L33.5614 73.1798C32.8194 73.8098 31.9374 74.2578 30.6494 74.2578C28.7734 74.2578 27.5134 72.9838 27.5134 71.1778C27.5134 69.9598 28.0314 68.7698 28.8854 67.9158C29.6274 67.1738 30.6074 66.6978 31.7274 66.6978C33.5614 66.6978 34.5274 67.9718 34.5274 69.4698C34.5274 69.9598 34.4294 70.4078 34.2754 70.8418ZM29.6554 68.4758C29.2214 68.9098 28.9274 69.4278 28.7454 70.0298H33.4074C33.4494 69.8898 33.4774 69.7078 33.4774 69.4698C33.4774 68.4758 32.9174 67.6078 31.6714 67.6078C30.8734 67.6078 30.2014 67.9578 29.6554 68.4758ZM35.4216 74.0898L38.1656 63.8698H39.2436L36.4996 74.0898H35.4216ZM46.211 70.8418H40.541C40.527 70.9398 40.527 71.0378 40.527 71.1358C40.527 72.4238 41.339 73.3338 42.669 73.3338C43.607 73.3338 44.279 73.0258 44.951 72.4798L45.497 73.1798C44.755 73.8098 43.873 74.2578 42.585 74.2578C40.709 74.2578 39.449 72.9838 39.449 71.1778C39.449 69.9598 39.967 68.7698 40.821 67.9158C41.563 67.1738 42.543 66.6978 43.663 66.6978C45.497 66.6978 46.463 67.9718 46.463 69.4698C46.463 69.9598 46.365 70.4078 46.211 70.8418ZM41.591 68.4758C41.157 68.9098 40.863 69.4278 40.681 70.0298H45.343C45.385 69.8898 45.413 69.7078 45.413 69.4698C45.413 68.4758 44.853 67.6078 43.607 67.6078C42.809 67.6078 42.137 67.9578 41.591 68.4758ZM47.2591 74.0898L49.1911 66.8518H50.2691L49.7791 68.7418C50.6751 67.4818 51.7671 66.6558 53.2231 66.7258L52.9151 67.8878H52.8451C51.2491 67.8878 49.7091 69.0498 49.1071 71.2338L48.3371 74.0898H47.2591ZM55.0109 74.2438C53.7929 74.2438 52.7149 73.5298 52.7149 72.2418C52.7149 71.5278 52.9669 70.9538 53.4009 70.5198C53.9749 69.9458 54.8709 69.6238 55.9349 69.6238C56.9009 69.6238 57.7969 69.8058 58.5109 70.0158L58.5529 69.8478C58.6089 69.6378 58.6509 69.3858 58.6509 69.1758C58.6509 68.2238 58.0209 67.7058 56.6909 67.7058C55.9069 67.7058 55.3049 67.8598 54.6469 68.0838L54.4649 67.1878C55.1789 66.9218 55.9069 66.7538 56.8589 66.7538C58.6929 66.7538 59.7009 67.5938 59.7009 68.9938C59.7009 69.3018 59.6449 69.6378 59.5469 69.9878L58.4549 74.0898H57.4049L57.7129 72.9558C57.0409 73.7398 56.1729 74.2438 55.0109 74.2438ZM55.3469 73.4038C56.5509 73.4038 57.8529 72.5218 58.1889 71.2478L58.3289 70.7438C57.6989 70.5618 56.8729 70.4218 55.9769 70.4218C55.2349 70.4218 54.6469 70.6458 54.2689 71.0238C53.9609 71.3178 53.8069 71.6818 53.8069 72.1158C53.8069 72.8998 54.3949 73.4038 55.3469 73.4038ZM63.2065 74.2158C62.1565 74.2158 61.4425 73.7398 61.4425 72.7878C61.4425 72.5218 61.4845 72.2558 61.5405 72.0318L62.6745 67.8038H61.6805L61.9325 66.8518H62.9405L63.5285 64.6678H64.5925L64.0045 66.8518H66.2865L66.0345 67.8038H63.7525L62.6325 71.9758C62.5905 72.1438 62.5765 72.3538 62.5765 72.5078C62.5765 73.0118 62.9545 73.2498 63.5705 73.2498C63.9065 73.2498 64.2565 73.1798 64.6205 73.0258L64.3545 74.0058C63.9765 74.1598 63.6405 74.2158 63.2065 74.2158ZM73.295 70.8418H67.625C67.611 70.9398 67.611 71.0378 67.611 71.1358C67.611 72.4238 68.423 73.3338 69.753 73.3338C70.691 73.3338 71.363 73.0258 72.035 72.4798L72.581 73.1798C71.839 73.8098 70.957 74.2578 69.669 74.2578C67.793 74.2578 66.533 72.9838 66.533 71.1778C66.533 69.9598 67.051 68.7698 67.905 67.9158C68.647 67.1738 69.627 66.6978 70.747 66.6978C72.581 66.6978 73.547 67.9718 73.547 69.4698C73.547 69.9598 73.449 70.4078 73.295 70.8418ZM68.675 68.4758C68.241 68.9098 67.947 69.4278 67.765 70.0298H72.427C72.469 69.8898 72.497 69.7078 72.497 69.4698C72.497 68.4758 71.937 67.6078 70.691 67.6078C69.893 67.6078 69.221 67.9578 68.675 68.4758ZM76.9891 74.1598L76.1351 64.2898H77.2831L77.8991 72.4518L82.7571 64.2618H83.6671L84.1851 72.4518L89.1691 64.2898H90.4151L84.2691 74.1598H83.3031L82.7431 66.2498L77.9411 74.1598H76.9891ZM92.6963 74.2578C90.7083 74.2578 89.4063 72.8718 89.4063 71.0098C89.4063 69.8478 89.8823 68.7698 90.7083 67.9718C91.4923 67.1878 92.5283 66.6978 93.6623 66.6978C95.6363 66.6978 96.9663 68.0698 96.9663 69.9318C96.9663 71.0938 96.4623 72.1578 95.6643 72.9838C94.8803 73.7678 93.8303 74.2578 92.6963 74.2578ZM92.7663 73.2918C93.5503 73.2918 94.2783 72.9418 94.8243 72.3958C95.4823 71.7378 95.8603 70.8698 95.8603 69.9738C95.8603 68.5038 94.9363 67.6498 93.5923 67.6498C92.8083 67.6498 92.0803 68.0138 91.5343 68.5598C90.9043 69.1898 90.4983 70.0858 90.4983 70.9818C90.4983 72.4518 91.4223 73.2918 92.7663 73.2918ZM100.77 74.2438C99.3704 74.2438 98.4604 73.3898 98.4604 72.0038C98.4604 71.6678 98.5444 71.2618 98.6424 70.8838L99.7064 66.8518H100.784L99.6924 70.9538C99.6224 71.1918 99.5804 71.5278 99.5804 71.7658C99.5804 72.7178 100.196 73.2778 101.204 73.2778C102.31 73.2778 103.444 72.3118 103.822 70.9258L104.914 66.8518H105.992L104.046 74.0898H102.982L103.29 72.9138C102.632 73.6558 101.876 74.2438 100.77 74.2438ZM106.472 74.0898L108.404 66.8518H109.482L109.174 68.0278C109.832 67.2858 110.574 66.6978 111.694 66.6978C113.094 66.6978 113.99 67.5518 113.99 68.9378C113.99 69.2738 113.92 69.6798 113.822 70.0578L112.744 74.0898H111.666L112.772 69.9878C112.828 69.7498 112.87 69.4138 112.87 69.1758C112.87 68.2238 112.268 67.6638 111.26 67.6638C110.154 67.6638 109.006 68.6298 108.642 70.0018L107.55 74.0898H106.472ZM120.826 74.0898L121.162 72.8578C120.448 73.6418 119.594 74.2578 118.418 74.2578C116.78 74.2578 115.548 73.0258 115.548 71.1918C115.548 69.8478 116.066 68.6998 116.892 67.8738C117.634 67.1318 118.6 66.6978 119.608 66.6978C121.106 66.6978 121.904 67.5378 122.324 68.4898L123.556 63.8698H124.634L121.904 74.0898H120.826ZM118.726 73.3058C119.51 73.3058 120.266 72.9418 120.868 72.3398C121.526 71.6818 121.946 70.8278 121.946 69.8898C121.946 68.6298 121.05 67.6498 119.706 67.6498C118.922 67.6498 118.236 67.9718 117.718 68.4898C117.06 69.1478 116.682 70.0858 116.682 71.0938C116.682 72.4378 117.508 73.3058 118.726 73.3058ZM128.693 74.0898L131.325 64.2898H132.431L131.269 68.6438H136.855L138.017 64.2898H139.137L136.505 74.0898H135.385L136.575 69.6798H130.989L129.799 74.0898H128.693ZM146.289 70.8418H140.619C140.605 70.9398 140.605 71.0378 140.605 71.1358C140.605 72.4238 141.417 73.3338 142.747 73.3338C143.685 73.3338 144.357 73.0258 145.029 72.4798L145.575 73.1798C144.833 73.8098 143.951 74.2578 142.663 74.2578C140.787 74.2578 139.527 72.9838 139.527 71.1778C139.527 69.9598 140.045 68.7698 140.899 67.9158C141.641 67.1738 142.621 66.6978 143.741 66.6978C145.575 66.6978 146.541 67.9718 146.541 69.4698C146.541 69.9598 146.443 70.4078 146.289 70.8418ZM141.669 68.4758C141.235 68.9098 140.941 69.4278 140.759 70.0298H145.421C145.463 69.8898 145.491 69.7078 145.491 69.4698C145.491 68.4758 144.931 67.6078 143.685 67.6078C142.887 67.6078 142.215 67.9578 141.669 68.4758ZM149.661 74.2438C148.443 74.2438 147.365 73.5298 147.365 72.2418C147.365 71.5278 147.617 70.9538 148.051 70.5198C148.625 69.9458 149.521 69.6238 150.585 69.6238C151.551 69.6238 152.447 69.8058 153.161 70.0158L153.203 69.8478C153.259 69.6378 153.301 69.3858 153.301 69.1758C153.301 68.2238 152.671 67.7058 151.341 67.7058C150.557 67.7058 149.955 67.8598 149.297 68.0838L149.115 67.1878C149.829 66.9218 150.557 66.7538 151.509 66.7538C153.343 66.7538 154.351 67.5938 154.351 68.9938C154.351 69.3018 154.295 69.6378 154.197 69.9878L153.105 74.0898H152.055L152.363 72.9558C151.691 73.7398 150.823 74.2438 149.661 74.2438ZM149.997 73.4038C151.201 73.4038 152.503 72.5218 152.839 71.2478L152.979 70.7438C152.349 70.5618 151.523 70.4218 150.627 70.4218C149.885 70.4218 149.297 70.6458 148.919 71.0238C148.611 71.3178 148.457 71.6818 148.457 72.1158C148.457 72.8998 149.045 73.4038 149.997 73.4038ZM155.502 74.0898L158.246 63.8698H159.324L156.58 74.0898H155.502ZM159.193 74.0898L161.139 66.8518H162.217L160.271 74.0898H159.193ZM161.489 65.2698L161.811 64.0798H163.043L162.721 65.2698H161.489ZM162.786 74.0898L164.718 66.8518H165.796L165.488 68.0278C166.146 67.2858 166.888 66.6978 168.008 66.6978C169.408 66.6978 170.304 67.5518 170.304 68.9378C170.304 69.2738 170.234 69.6798 170.136 70.0578L169.058 74.0898H167.98L169.086 69.9878C169.142 69.7498 169.184 69.4138 169.184 69.1758C169.184 68.2238 168.582 67.6638 167.574 67.6638C166.468 67.6638 165.32 68.6298 164.956 70.0018L163.864 74.0898H162.786ZM174.508 76.3578C173.164 76.3578 171.862 75.8818 170.966 75.0978L171.638 74.3418C172.422 74.9998 173.374 75.4338 174.494 75.4338C175.404 75.4338 176.09 75.1398 176.524 74.6918C176.972 74.2578 177.224 73.6978 177.434 72.9558L177.63 72.2278C176.902 72.9698 176.048 73.5298 174.858 73.5298C173.346 73.5298 171.918 72.5358 171.918 70.7998C171.918 69.6238 172.408 68.6298 173.136 67.9018C173.906 67.1318 174.928 66.6978 175.978 66.6978C177.532 66.6978 178.218 67.5658 178.638 68.4338L179.058 66.8518H180.136L178.484 73.0538C178.162 74.1738 177.826 74.8178 177.308 75.3358C176.636 76.0078 175.74 76.3578 174.508 76.3578ZM175.166 72.6058C176.006 72.6058 176.804 72.2278 177.378 71.6538C177.924 71.1078 178.26 70.4078 178.26 69.6938C178.26 68.6298 177.42 67.6498 176.034 67.6498C175.25 67.6498 174.508 67.9718 173.948 68.5318C173.402 69.0778 173.052 69.8058 173.052 70.6598C173.052 71.9478 174.06 72.6058 175.166 72.6058ZM186.492 74.1458L185.918 66.8518H187.01L187.388 72.6198L190.888 66.8238H191.784L192.19 72.6198L195.676 66.8518H196.796L192.288 74.1458H191.336L190.916 68.4338L187.43 74.1458H186.492ZM196.777 74.0898L198.723 66.8518H199.801L197.855 74.0898H196.777ZM199.073 65.2698L199.395 64.0798H200.627L200.305 65.2698H199.073ZM202.96 74.2158C201.91 74.2158 201.196 73.7398 201.196 72.7878C201.196 72.5218 201.238 72.2558 201.294 72.0318L202.428 67.8038H201.434L201.686 66.8518H202.694L203.282 64.6678H204.346L203.758 66.8518H206.04L205.788 67.8038H203.506L202.386 71.9758C202.344 72.1438 202.33 72.3538 202.33 72.5078C202.33 73.0118 202.708 73.2498 203.324 73.2498C203.66 73.2498 204.01 73.1798 204.374 73.0258L204.108 74.0058C203.73 74.1598 203.394 74.2158 202.96 74.2158ZM205.99 74.0898L208.734 63.8698H209.812L208.692 68.0278C209.35 67.2858 210.092 66.6978 211.212 66.6978C212.612 66.6978 213.508 67.5518 213.508 68.9378C213.508 69.2738 213.438 69.6798 213.34 70.0578L212.262 74.0898H211.184L212.29 69.9878C212.346 69.7498 212.388 69.4138 212.388 69.1758C212.388 68.2238 211.786 67.6638 210.778 67.6638C209.672 67.6638 208.524 68.6298 208.16 70.0018L207.068 74.0898H205.99ZM220.466 74.1458L219.892 66.8518H220.984L221.362 72.6198L224.862 66.8238H225.758L226.164 72.6198L229.65 66.8518H230.77L226.262 74.1458H225.31L224.89 68.4338L221.404 74.1458H220.466ZM233.552 74.2438C232.152 74.2438 231.242 73.3898 231.242 72.0038C231.242 71.6678 231.326 71.2618 231.424 70.8838L232.488 66.8518H233.566L232.474 70.9538C232.404 71.1918 232.362 71.5278 232.362 71.7658C232.362 72.7178 232.978 73.2778 233.986 73.2778C235.092 73.2778 236.226 72.3118 236.604 70.9258L237.696 66.8518H238.774L236.828 74.0898H235.764L236.072 72.9138C235.414 73.6558 234.658 74.2438 233.552 74.2438ZM239.253 74.0898L241.185 66.8518H242.263L241.955 68.0278C242.613 67.2858 243.355 66.6978 244.475 66.6978C245.875 66.6978 246.771 67.5518 246.771 68.9378C246.771 69.2738 246.701 69.6798 246.603 70.0578L245.525 74.0898H244.447L245.553 69.9878C245.609 69.7498 245.651 69.4138 245.651 69.1758C245.651 68.2238 245.049 67.6638 244.041 67.6638C242.935 67.6638 241.787 68.6298 241.423 70.0018L240.331 74.0898H239.253ZM253.607 74.0898L253.943 72.8578C253.229 73.6418 252.375 74.2578 251.199 74.2578C249.561 74.2578 248.329 73.0258 248.329 71.1918C248.329 69.8478 248.847 68.6998 249.673 67.8738C250.415 67.1318 251.381 66.6978 252.389 66.6978C253.887 66.6978 254.685 67.5378 255.105 68.4898L256.337 63.8698H257.415L254.685 74.0898H253.607ZM251.507 73.3058C252.291 73.3058 253.047 72.9418 253.649 72.3398C254.307 71.6818 254.727 70.8278 254.727 69.8898C254.727 68.6298 253.831 67.6498 252.487 67.6498C251.703 67.6498 251.017 67.9718 250.499 68.4898C249.841 69.1478 249.463 70.0858 249.463 71.0938C249.463 72.4378 250.289 73.3058 251.507 73.3058ZM260.161 72.5498L260.931 69.6658H258.033L258.299 68.6578H261.197L261.981 65.7738H263.031L262.247 68.6578H265.159L264.879 69.6658H261.981L261.211 72.5498H260.161ZM267.707 68.6018L268.743 64.8778H267.371L267.539 64.2898H270.913L270.745 64.8778H269.373L268.323 68.6018H267.707ZM270.661 68.6018L271.879 64.2898H272.467L273.377 66.6558L275.533 64.2898H276.247L275.029 68.6018H274.427L275.365 65.2978L273.195 67.6358H273.125L272.215 65.2978L271.277 68.6018H270.661Z" fill="white"/>
</svg>
