<svg width="40" height="40" viewBox="0 0 40 40" fill="none" xmlns="http://www.w3.org/2000/svg">
<path d="M19.768 3V14.8665C17.2434 14.391 14.6358 14.7167 12.3002 15.7993C9.9646 16.8818 8.0146 18.6685 6.71573 20.9161C5.41687 23.1637 4.83227 25.763 5.04157 28.3598C5.25086 30.9567 6.24386 33.425 7.88534 35.4286C9.52682 37.4322 11.737 38.8737 14.2149 39.5568C16.6927 40.2398 19.3179 40.1313 21.7328 39.2459C24.1477 38.3605 26.2349 36.7413 27.7103 34.6089C29.1857 32.4764 29.9775 29.9343 29.9779 27.3287V20.4168C31.9378 21.2627 34.047 21.6945 36.1768 21.6859H38V11.3254H36.1768C32.7072 11.3254 29.9779 8.48183 29.9779 4.85009V3H19.768ZM23.4144 6.70019H26.4919C27.2103 10.8074 30.2842 14.0932 34.3536 14.8591V17.8526C32.4611 17.5713 30.7528 16.8498 29.1702 15.7749L26.3315 13.8471V27.3287C26.3313 29.1231 25.801 30.8762 24.809 32.3616C23.8171 33.847 22.409 34.9965 20.7667 35.6616C19.1244 36.3268 17.3233 36.477 15.596 36.0928C13.8687 35.7087 12.2946 34.8079 11.0769 33.5068C9.85928 32.2056 9.05403 30.5639 8.76519 28.7936C8.47634 27.0234 8.71717 25.2059 9.45656 23.5759C10.1959 21.946 11.3999 20.5784 12.913 19.6498C14.4261 18.7213 16.1788 18.2744 17.9448 18.3669V21.3344C16.7569 21.2414 15.569 21.514 14.5361 22.1164C13.5031 22.7189 12.6732 23.6234 12.1545 24.7118C11.6359 25.8002 11.4526 27.022 11.6286 28.2177C11.8046 29.4134 12.3317 30.5275 13.1411 31.4146C13.9506 32.3017 15.0047 32.9206 16.1661 33.1905C17.3274 33.4604 18.5419 33.3688 19.6512 32.9276C20.7604 32.4864 21.7129 31.7162 22.3842 30.7174C23.0555 29.7186 23.4145 28.5377 23.4144 27.3287V6.70019ZM15.21 27.3287C15.21 26.7154 15.4501 26.1272 15.8775 25.6935C16.3049 25.2598 16.8845 25.0161 17.489 25.0161C18.0934 25.0161 18.6731 25.2598 19.1005 25.6935C19.5279 26.1272 19.768 26.7154 19.768 27.3287C19.768 27.9421 19.5279 28.5303 19.1005 28.964C18.6731 29.3977 18.0934 29.6414 17.489 29.6414C16.8845 29.6414 16.3049 29.3977 15.8775 28.964C15.4501 28.5303 15.21 27.9421 15.21 27.3287Z" fill="#DE0026"/>
</svg>
